<svg xmlns="http://www.w3.org/2000/svg" xmlns:xlink="http://www.w3.org/1999/xlink" version="1.1" x="0px" y="0px" viewBox="0 0 30 37.5" xml:space="preserve"><g transform="translate(-510 -141)"><g xmlns="http://www.w3.org/2000/svg" xmlns:xlink="http://www.w3.org/1999/xlink"><path d="M535,153v1h0.219l0.484,1.936c-0.24,0.052-0.468,0.11-0.703,0.165v1.029c0.313-0.075,0.622-0.152,0.945-0.222l0.585,2.338    c-1.798,1.602-4.273,4.423-5.9,8.754h-7.204c-0.907-1.281-2.046-2.277-3.283-3.029c1.016-1.033,2.29-2.124,3.857-3.181v-1.249    c-2.022,1.283-3.603,2.637-4.813,3.905c-2.405-1.214-4.949-1.672-6.558-1.841l0.632-2.527c1.063-0.277,1.964-0.652,2.738-1.084    v-1.146c-0.683,0.438-1.485,0.828-2.462,1.127l1.243-4.974H516v-1h-2l-4,16h30l-4-16H535z M511.281,168l1.102-4.406    c1.451,0.151,3.825,0.556,6.089,1.637c-0.908,1.047-1.563,2.001-2.022,2.769H511.281z M517.664,168    c0.439-0.661,1.022-1.436,1.767-2.267c1.01,0.588,1.962,1.329,2.752,2.267H517.664z M538.719,168h-7.005    c1.438-3.603,3.491-6.096,5.099-7.626L538.719,168z"/><path d="M519.099,154c-0.027,0.079-0.067,0.164-0.099,0.244v2.052c0.552-0.802,0.904-1.605,1.122-2.296h1.64    c-0.206-0.307-0.359-0.646-0.485-1H519v1H519.099z"/><path d="M532,156.911c-1.858,0.579-3.52,1.244-5,1.963v1.149c1.469-0.751,3.13-1.449,5-2.055V156.911z"/><path d="M532,154v-1h-2.276c-0.126,0.354-0.279,0.693-0.485,1H532z"/><path d="M525,154.95V166h1v-11.05c1.694-0.245,3-1.688,3-3.45c0-1.933-1.566-3.5-3.5-3.5s-3.5,1.567-3.5,3.5    C522,153.261,523.306,154.705,525,154.95z M523,151.5c0-1.381,1.119-2.5,2.5-2.5s2.5,1.119,2.5,2.5s-1.119,2.5-2.5,2.5    S523,152.881,523,151.5z"/><path d="M533,159h1v-11.05c1.694-0.245,3-1.688,3-3.45c0-1.933-1.566-3.5-3.5-3.5s-3.5,1.567-3.5,3.5c0,1.761,1.306,3.205,3,3.45    V159z M531,144.5c0-1.381,1.119-2.5,2.5-2.5s2.5,1.119,2.5,2.5s-1.119,2.5-2.5,2.5S531,145.881,531,144.5z"/><path d="M517,160h1v-11.05c0.354-0.051,0.688-0.151,1-0.299c1.18-0.563,2-1.757,2-3.15c0-1.933-1.566-3.5-3.5-3.5    s-3.5,1.567-3.5,3.5c0,1.394,0.82,2.587,2,3.15c0.312,0.148,0.646,0.248,1,0.299V160z M515,145.5c0-1.381,1.119-2.5,2.5-2.5    s2.5,1.119,2.5,2.5s-1.119,2.5-2.5,2.5S515,146.881,515,145.5z"/></g></g><text x="0" y="45" fill="#000000" font-size="5px" font-weight="bold" font-family="'Helvetica Neue', Helvetica, Arial-Unicode, Arial, Sans-serif">Created by Hea Poh Lin</text><text x="0" y="50" fill="#000000" font-size="5px" font-weight="bold" font-family="'Helvetica Neue', Helvetica, Arial-Unicode, Arial, Sans-serif">from the Noun Project</text></svg>