<svg height="512" viewBox="0 0 60 56" width="512" xmlns="http://www.w3.org/2000/svg"><g id="Page-1" fill="none" fill-rule="evenodd"><g id="011---Brain-Storm" fill="rgb(0,0,0)" fill-rule="nonzero"><path id="Shape" d="m59 20c-.0060655-2.9826209-2.202099-5.5079529-5.155-5.928-.9817039-6.34427258-6.4253211-11.03650532-12.845-11.072-.255 0-.523.03-.784.045-.942357-1.67202129-2.6297661-2.79033862-4.5368216-3.00674349-1.9070556-.21640487-3.8021378.49538598-5.0951784 1.91374349-1.7747072-1.26942253-3.902024-1.95195418-6.084-1.952-3.3912362.01694187-6.5683689 1.66018381-8.542 4.418-2.2661363-.79084428-4.7740736-.44697611-6.7437103.92464324-1.96963668 1.37161935-3.16203275 3.60459643-3.2062897 6.00435676-2.9450032.9898427-4.61261357 4.0990952-3.808 7.1-1.43619755 2.0712603-2.20392674 4.5325303-2.2 7.053-.00372267 3.9183781 1.83190621 7.6113136 4.9577682 9.9740848 3.12586198 2.3627712 7.1794784 3.1213883 10.9482318 2.0489152 1.3065644 2.8101949 3.9052182 4.8034938 6.9580076 5.3371438 3.0527894.5336501 6.173558-.4598516 8.3559924-2.6601438 1.2297255.4178156 2.5089966.672325 3.805.757.185 3.74 1.623 5.982 7.659 7.994 3.919 1.306 4.965 3.958 5.239 5.423.186163.9482782 1.0196324 1.6306655 1.986 1.626h3.051c.551341.0009443 1.0786167-.2257532 1.4572421-.6265282.3786255-.400775.5750122-.9400743.5427579-1.4904718-.149-2.4-.814-7.957-3.711-11.485 3.3342266-1.8221194 5.6995602-5.0170931 6.469-8.738 2.7251289-3.1727276 3.043128-7.758502.782-11.277.3269755-.7520695.4971101-1.562931.5-2.383zm-2.926 12.512-.023.024c-1.4228925 1.5634741-3.4369915 2.4575004-5.551 2.464-1.1833862.0041068-2.3500974-.2789923-3.4-.825-.4764419-.2458999-.9236058-.5447919-1.333-.891 1.3361001-1.5254239 1.6159632-3.7078027.708-5.521-.1607695-.3193954-.4797221-.5287595-.8367114-.5492267-.3569894-.0204673-.6977802.1510718-.8940001.45-.1962198.2989282-.218058.6798313-.0572885.9992267.2077282.4149579.3149483.8729556.313 1.337.0013017 1.3925754-.9558701 2.6029592-2.311249 2.9226713-1.355379.3197121-2.7525712-.3353152-3.373751-1.5816713-.1607695-.3193955-.4797221-.5287595-.8367114-.5492268-.3569894-.0204672-.6977803.1510718-.8940001.4500001-.1962198.2989282-.218058.6798313-.0572885.9992267 1.2046566 2.4293427 4.133698 3.4454318 6.584 2.284.6227307.5734399 1.3224878 1.0571104 2.079 1.437 2.7114074 1.3974505 5.9330737 1.3888714 8.637-.023-1.565434 3.1430362-4.5474592 5.3409447-8.013 5.906-.5164685.0807281-.8836179.5456149-.8424633 1.066732s.4767254.92261.9994633.921268c.0536029.0001459.1071237-.0042027.16-.013.7507555-.1229083 1.4890252-.312663 2.206-.567 2.84 2.985 3.482 8.462 3.623 10.751h-3.071c-.286-1.527-1.5-5.261-6.573-6.952-5.157-1.719-6.147-3.28-6.292-6.091h.054c1.1311433-.0778738 2.2497094-.2845435 3.334-.616.5279842-.1620956.8245955-.7215158.6625-1.2495-.1620956-.5279842-.7215158-.8245956-1.2495-.6625-.9453134.288899-1.9207271.4680771-2.907.534-1.9119886.1490682-3.8327774-.1402814-5.616-.846-.3947673-.1501226-.8412532-.0392984-1.12.278-1.7508236 2.0334082-4.4552165 2.9755401-7.0904935 2.4701219-2.6352769-.5054182-4.7992153-2.3812445-5.6735065-4.9181219v-.006c-.7298762-2.0925229-.4909363-4.4012983.652-6.3.2847028-.473308.131808-1.0877972-.3415-1.3725s-1.0877972-.131808-1.3725.3415c-.4431245.7382614-.783272 1.5336211-1.011 2.364-.8527109.1133127-1.7124841-.1504388-2.3549654-.7224296s-1.0039325-1.3954759-.9900346-2.2555704v-.04c-.0007638-.2631596-.1070133-.5150246-.2949661-.6992183-.1879527-.1841937-.4419126-.2853339-.7050339-.2807817-.5559632.0098307-1.00117934.4639512-1 1.02.0033061 2.7600532 2.2399468 4.9966939 5 5h.034c-.009.168-.034.334-.034.5.0021852.7188973.0863966 1.4351974.251 2.135-3.1562638.854344-6.53036935.1903983-9.12762056-1.7961039s-4.12149483-5.0690488-4.12337944-8.3388961c-.0030005-1.7088718.41607319-3.3920366 1.22-4.9.45947627.620486 1.03472539 1.1461564 1.694 1.548.30635524.1838132.68750232.1902249.9998668.0168201.31236449-.1734049.50849078-.500282.51450001-.8575s-.17901155-.690507-.48536681-.8743201c-1.5446595-.9237013-2.28220478-2.7652776-1.80217873-4.4998588.48002604-1.7345813 2.05940272-2.9349752 3.85917873-2.9331412 1.26198765-.0046623 2.4505888.5926098 3.2 1.608.3313709.4418278.9581722.5313708 1.4.2.4418278-.3313709.5313708-.9581722.2-1.4-1.1197949-1.5144118-2.89155009-2.4078959-4.775-2.408.2611652-2.82985344 2.6331235-4.99602541 5.475-5 .4834299.00291273.9643207.07017018 1.43.2-.2411135.52585762-.438449 1.07070417-.59 1.629-.067243.25673553-.0296719.52967133.1044379.75868952.1341097.2290182.3537572.39533271.6105621.46231048.2567355.06724301.5296713.02967186.7586895-.10443789s.3953327-.35375725.4623105-.61056211c.1976831-.76164832.5005994-1.49201332.9-2.17 1.5436419-2.57497562 4.3217963-4.15485178 7.324-4.165 1.7944708-.00105423 3.5428863.56797746 4.993 1.625-.3255339.74945944-.4933479 1.55789436-.493 2.375 0 .55228475.4477153 1 1 1s1-.44771525 1-1c0-2.209139 1.790861-4 4-4s4 1.790861 4 4c0 .55228475.4477153 1 1 1s1-.44771525 1-1c-.0017144-.33527642-.031822-.6698053-.09-1h.09c5.3406646.02805197 9.8994163 3.86620364 10.837 9.124-.8832585.1697345-1.7165022.5376336-2.437 1.076-.4418278.3313708-.5313708.9581722-.2 1.4s.9581722.5313708 1.4.2c1.5145836-1.1374613 3.6193316-1.056663 5.0422552.1935651 1.4229235 1.2502281 1.7738689 3.3270839.8407448 4.9754349-.4153691.7235303-1.0439981 1.3011705-1.8 1.654-.50037.2341687-.7161687.82963-.482 1.33s.82963.7161687 1.33.482c.6328696-.3020093 1.2081691-.712164 1.7-1.212 1.3450463 2.7403317.8843137 6.0236957-1.163 8.288z"/><path id="Shape" d="m36 19h-4v-9c.0000588-.43482306-.2808751-.81984882-.6949766-.95248001-.4141016-.13263119-.86645.01753403-1.1190234.37148001l-10 14c-.2176148.3048494-.246628.7057482-.075175 1.0387546.1714529.3330063.5146228.5422815.889175.5422454h4v9c-.0000588.4348231.2808751.8198488.6949766.95248.4141016.1326312.86645-.017534 1.1190234-.37148l10-14c.2176148-.3048494.246628-.7057482.075175-1.0387546-.1714529-.3330063-.5146228-.5422815-.889175-.5422454zm-9 11.879v-6.879c0-.5522847-.4477153-1-1-1h-3.057l7.057-9.879v6.879c0 .5522847.4477153 1 1 1h3.057z"/></g></g></svg>