<?xml version="1.0" encoding="iso-8859-1"?>
<!-- Generator: Adobe Illustrator 18.1.1, SVG Export Plug-In . SVG Version: 6.00 Build 0)  -->
<svg version="1.1" id="Capa_1" xmlns="http://www.w3.org/2000/svg" xmlns:xlink="http://www.w3.org/1999/xlink" x="0px" y="0px"
	 viewBox="0 0 25 25" style="enable-background:new 0 0 25 25;" xml:space="preserve">
<g>
	<path d="M23.077,21.154C23.077,23.796,17.594,25,12.5,25S1.923,23.796,1.923,21.154
		c0-2.033,3.025-2.992,5.562-3.439c0.525-0.091,1.022,0.258,1.114,0.781s-0.257,1.022-0.78,1.114
		c-3.06,0.537-3.924,1.379-3.974,1.559c0.147,0.504,3.032,1.908,8.655,1.908s8.508-1.404,8.656-1.938
		c-0.051-0.15-0.92-0.997-4.002-1.533c-0.523-0.091-0.873-0.59-0.782-1.113c0.091-0.522,0.581-0.871,1.113-0.782
		C20.036,18.156,23.077,19.113,23.077,21.154z M8.654,15.385h0.961v5.769c0,0.53,0.432,0.961,0.962,0.961h3.846
		c0.53,0,0.962-0.432,0.962-0.961v-5.769h0.961c0.53,0,0.962-0.432,0.962-0.962V8.654c0-0.492-0.772-1.572-2.112-1.728
		c-0.55-0.105-1.611-0.18-2.681-0.18c-1.08-0.001-2.156,0.075-2.712,0.18C8.464,7.083,7.692,8.163,7.692,8.654v5.769
		C7.692,14.953,8.124,15.385,8.654,15.385z M12.5,5.769c1.593,0,2.885-1.292,2.885-2.885C15.385,1.292,14.093,0,12.5,0
		S9.615,1.292,9.615,2.885S10.907,5.769,12.5,5.769z"/>
</g>
<g>
</g>
<g>
</g>
<g>
</g>
<g>
</g>
<g>
</g>
<g>
</g>
<g>
</g>
<g>
</g>
<g>
</g>
<g>
</g>
<g>
</g>
<g>
</g>
<g>
</g>
<g>
</g>
<g>
</g>
</svg>
