<?xml version="1.0" encoding="iso-8859-1"?>
<!-- Generator: Adobe Illustrator 17.1.0, SVG Export Plug-In . SVG Version: 6.00 Build 0)  -->
<!DOCTYPE svg PUBLIC "-//W3C//DTD SVG 1.1//EN" "http://www.w3.org/Graphics/SVG/1.1/DTD/svg11.dtd">
<svg version="1.1" id="Capa_1" xmlns="http://www.w3.org/2000/svg" xmlns:xlink="http://www.w3.org/1999/xlink" x="0px" y="0px"
	 viewBox="0 0 470.65 470.65" style="enable-background:new 0 0 470.65 470.65;" xml:space="preserve">
<path d="M465.002,137.833c-23.877-24.105-58.897-33.549-82.07-39.798c-4.454-1.201-8.659-2.335-12.158-3.406
	c-14.223-4.36-23.32-14.173-27.437-19.569c0.136-4.28-2.976-9.151-8.393-12.608l-5.772-3.685c-2.214-1.413-4.751-2.16-7.335-2.16
	c-5.154,0-9.922,2.94-12.456,7.676l-75.116,134.402L162.782,64.86c-2.502-4.898-7.322-7.938-12.593-7.938
	c-2.482,0-4.931,0.694-7.084,2.005l-5.838,3.558c-5.487,3.342-8.691,8.15-8.632,12.435c-4.216,5.302-13.483,14.903-27.771,18.948
	c-3.517,0.995-7.742,2.037-12.216,3.14c-23.284,5.742-58.472,14.418-82.788,38c-7.127,6.914-6.469,12.624-4.66,16.197
	l52.412,103.496c1.762,3.482,5.169,5.644,8.891,5.645c0,0,0,0,0,0c2.888,0,5.634-1.274,7.73-3.586
	c5.012-5.527,23.381-23.859,49.349-27.69c21.019-3.102,45.715-8.478,69.513-24.838l0.281-0.194c0.575-0.398,2.03-1.405,2.766-1.57
	c0.13,0.139,0.365,0.437,0.657,1.013l19.253,34.95l-81.089,145.091l-0.051,0.094c-3.779,7.127-1.493,16.345,5.094,20.549
	l5.772,3.684c2.214,1.413,4.751,2.161,7.335,2.161c5.143,0,9.902-2.928,12.439-7.647l71.972-124.951l70.907,128.721
	c2.506,4.88,7.317,7.908,12.578,7.908c2.481,0,4.931-0.693,7.085-2.005l5.836-3.557c6.671-4.063,9.129-13.234,5.48-20.444
	l-79.682-149.172l21.037-36.521l0.082-0.149c0.296-0.558,0.531-0.848,0.663-0.984c0.739,0.184,2.173,1.221,2.74,1.632l0.279,0.201
	c23.49,16.873,48.082,22.789,69.041,26.352c25.898,4.398,43.935,23.133,48.846,28.771c2.106,2.417,4.898,3.749,7.862,3.749
	c0,0,0,0,0.001,0c3.639,0,7.009-2.093,8.796-5.462l54.283-102.329C471.232,150.59,471.997,144.897,465.002,137.833z"/>
<g>
</g>
<g>
</g>
<g>
</g>
<g>
</g>
<g>
</g>
<g>
</g>
<g>
</g>
<g>
</g>
<g>
</g>
<g>
</g>
<g>
</g>
<g>
</g>
<g>
</g>
<g>
</g>
<g>
</g>
</svg>
