<svg xmlns="http://www.w3.org/2000/svg" xmlns:xlink="http://www.w3.org/1999/xlink" version="1.1" x="0px" y="0px" viewBox="0 0 30 37.5" xml:space="preserve"><g transform="translate(-450 -141)"><g xmlns="http://www.w3.org/2000/svg" xmlns:xlink="http://www.w3.org/1999/xlink"><path d="M470,153v1h5.219l0.484,1.936c-2.104,0.453-3.998,1.016-5.703,1.652v1.096c1.763-0.688,3.731-1.297,5.945-1.776    l0.585,2.338c-1.798,1.602-4.273,4.423-5.9,8.754h-7.204c-0.907-1.281-2.046-2.277-3.283-3.029    c1.599-1.625,3.825-3.396,6.857-4.947v-1.149c-3.539,1.719-6.061,3.736-7.813,5.572c-2.405-1.214-4.949-1.672-6.558-1.841    l0.632-2.527c4.533-1.183,6.233-4.088,6.86-6.078H467v-1h-13l-4,16h30l-4-16H470z M454.781,154h4.317    c-0.58,1.655-2.017,3.889-5.561,4.974L454.781,154z M451.281,168l1.102-4.406c1.451,0.151,3.825,0.556,6.089,1.637    c-0.908,1.047-1.563,2.001-2.022,2.769H451.281z M457.664,168c0.439-0.661,1.022-1.436,1.767-2.267    c1.01,0.588,1.962,1.329,2.752,2.267H457.664z M478.719,168h-7.005c1.438-3.603,3.491-6.096,5.099-7.626L478.719,168z"/><path d="M468,162h1v-11.05c0.354-0.051,0.688-0.151,1-0.299c1.18-0.563,2-1.757,2-3.15c0-1.933-1.566-3.5-3.5-3.5    s-3.5,1.567-3.5,3.5c0,1.394,0.82,2.587,2,3.15c0.312,0.148,0.646,0.248,1,0.299V162z M466,147.5c0-1.381,1.119-2.5,2.5-2.5    s2.5,1.119,2.5,2.5s-1.119,2.5-2.5,2.5S466,148.881,466,147.5z"/></g></g><text x="0" y="45" fill="#000000" font-size="5px" font-weight="bold" font-family="'Helvetica Neue', Helvetica, Arial-Unicode, Arial, Sans-serif">Created by Hea Poh Lin</text><text x="0" y="50" fill="#000000" font-size="5px" font-weight="bold" font-family="'Helvetica Neue', Helvetica, Arial-Unicode, Arial, Sans-serif">from the Noun Project</text></svg>