<svg id="_x31_px" enable-background="new 0 0 24 24" height="512" viewBox="0 0 24 24" width="512" xmlns="http://www.w3.org/2000/svg"><path d="m12 4c-.276 0-.5-.224-.5-.5v-2c0-.276.224-.5.5-.5s.5.224.5.5v2c0 .276-.224.5-.5.5z"/><path d="m12 11c-.059 0-.117-.01-.173-.031l-9.5-3.5c-.197-.072-.327-.26-.327-.469s.13-.397.327-.469l9.5-3.5c.111-.041.234-.041.346 0l9.5 3.5c.197.072.327.26.327.469s-.13.397-.327.469l-9.5 3.5c-.056.021-.114.031-.173.031zm-8.054-4 8.054 2.967 8.054-2.967-8.054-2.967z"/><path d="m.5 20.24c-.203 0-.394-.125-.469-.327-.096-.259.036-.546.295-.642l2-.74c.259-.097.546.036.642.295s-.036.546-.295.642l-2 .74c-.057.022-.115.032-.173.032z"/><path d="m23.5 20.24c-.058 0-.116-.01-.173-.031l-2-.74c-.259-.096-.392-.383-.295-.642s.384-.392.642-.295l2 .74c.259.096.392.383.295.642-.075.202-.266.326-.469.326z"/><path d="m12 23c-.059 0-.117-.01-.173-.031l-9.5-3.5c-.197-.072-.327-.26-.327-.469v-12c0-.276.224-.5.5-.5s.5.224.5.5v11.651l9 3.316 9-3.316v-11.651c0-.276.224-.5.5-.5s.5.224.5.5v12c0 .209-.13.397-.327.469l-9.5 3.5c-.056.021-.114.031-.173.031z"/><path d="m12 23c-.276 0-.5-.224-.5-.5v-12c0-.276.224-.5.5-.5s.5.224.5.5v12c0 .276-.224.5-.5.5z"/></svg>