<?xml version="1.0" encoding="utf-8"?>
<svg width="530" height="530" xmlns="http://www.w3.org/2000/svg" enable-background="new 0 0 511.957 511.957">
    <path id="svg_1" d="M 511.879 235.475 C 511.517 232.873 509.742 230.577 507.313 229.576 L 378.78 176.63 L 378.78 80.98 C 378.78 65.323 343.968 39.867 318.688 34.075 C 309.239 31.91 306.557 45.894 316.14 47.384 C 336.012 50.475 363.78 72.038 363.78 80.98 C 363.78 99.642 320.026 120.435 257.241 120.435 C 194.456 120.435 150.702 99.642 150.702 80.98 C 150.702 62.318 194.456 41.525 257.241 41.525 C 271.616 41.525 288.267 40.492 312.77 46.456 C 336.859 52.319 331.543 39.996 315.239 33.272 C 301.732 27.701 272.44 26.525 257.241 26.525 C 225.824 26.525 196.172 31.61 173.748 40.842 C 149.214 50.945 135.703 65.198 135.703 80.98 L 135.703 259.83 L 89.429 314.674 C 83.176 322.086 94.64 331.758 100.894 324.348 L 135.703 283.091 L 135.703 466.846 L 19.881 420.363 L 75.392 354.572 C 81.645 347.16 70.181 337.488 63.927 344.898 L 1.724 418.621 C -1.316 423.555 -0.337 427.487 4.663 430.418 L 140.409 484.898 C 142.177 485.61 144.228 485.61 145.996 484.898 L 278.853 431.578 L 367.19 467.967 C 368.996 468.712 371.097 468.711 372.903 467.967 L 507.313 412.6 C 510.123 411.443 511.957 408.704 511.957 405.665 L 511.957 236.511 C 511.957 236.161 511.927 235.816 511.879 235.475 Z M 283.561 417.295 L 243.138 369.385 L 243.138 247.712 L 362.547 296.9 L 362.547 449.831 L 283.561 417.295 Z M 370.047 189.255 L 484.739 236.5 L 370.046 283.595 L 255.355 236.5 L 370.047 189.255 Z M 173.748 121.116 C 196.172 130.349 225.824 135.434 257.241 135.434 C 292.169 135.434 335.595 130.919 363.78 107.95 L 363.78 175.614 L 232.781 229.576 C 230.024 230.711 228.137 233.526 228.137 236.511 L 228.137 351.607 L 150.702 259.83 L 150.702 107.95 C 156.704 112.842 164.429 117.279 173.748 121.116 Z M 150.702 466.847 L 150.702 283.092 L 266.523 420.364 L 150.702 466.847 Z M 377.547 449.831 L 377.547 296.9 L 496.957 247.712 L 496.957 400.644 L 377.547 449.831 Z"/>
    <line transform="rotate(-0.157342, 84.6882, 332.086)" stroke-width="15" stroke-linecap="undefined" stroke-linejoin="undefined" id="svg_2" y2="298.21504" x2="113.39788" y1="365.95696" x1="55.97853" stroke="#000" fill="none"/>
</svg>