<svg id="_x31_px" enable-background="new 0 0 24 24" height="512" viewBox="0 0 24 24" width="512" xmlns="http://www.w3.org/2000/svg"><path d="m10 8c-.059 0-.117-.011-.173-.031l-9.5-3.5c-.197-.073-.327-.259-.327-.469s.13-.396.327-.469l9.5-3.5c.111-.041.234-.041.346 0l9.5 3.5c.197.073.327.259.327.469s-.13.396-.327.469l-9.5 3.5c-.056.02-.114.031-.173.031zm-8.054-4 8.054 2.967 8.054-2.967-8.054-2.967z"/><path d="m10 20c-.059 0-.117-.011-.173-.031l-9.5-3.5c-.197-.073-.327-.259-.327-.469v-12c0-.276.224-.5.5-.5s.5.224.5.5v11.651l8.998 3.315.436-.165c.257-.097.546.032.645.291.098.259-.033.547-.291.645l-.61.23c-.058.022-.118.033-.178.033z"/><path d="m19.5 10c-.276 0-.5-.224-.5-.5v-5.5c0-.276.224-.5.5-.5s.5.224.5.5v5.5c0 .276-.224.5-.5.5z"/><path d="m10 14c-.276 0-.5-.224-.5-.5v-6c0-.276.224-.5.5-.5s.5.224.5.5v6c0 .276-.224.5-.5.5z"/><path d="m21.208 24c-.098 0-.196-.029-.281-.087l-3.427-2.332-3.427 2.332c-.171.117-.397.116-.568-.004-.17-.118-.249-.331-.198-.532l1.061-4.187-3.192-2.727c-.155-.132-.214-.346-.149-.539.065-.194.241-.328.445-.34l4.083-.232 1.477-4.024c.145-.395.794-.395.938 0l1.477 4.024 4.083.232c.204.012.38.146.445.34.065.193.006.407-.149.539l-3.192 2.727 1.061 4.187c.051.201-.028.414-.198.532-.088.061-.188.091-.289.091zm-3.708-3.523c.098 0 .196.029.281.087l2.619 1.781-.813-3.21c-.046-.185.016-.38.16-.503l2.481-2.119-3.167-.181c-.199-.011-.373-.14-.441-.327l-1.12-3.053-1.12 3.053c-.068.188-.242.316-.441.327l-3.167.181 2.481 2.119c.145.123.207.318.16.503l-.813 3.21 2.619-1.781c.085-.058.183-.087.281-.087z"/></svg>