<?xml version="1.0" encoding="iso-8859-1"?>
<!-- Generator: Adobe Illustrator 16.0.0, SVG Export Plug-In . SVG Version: 6.00 Build 0)  -->
<!DOCTYPE svg PUBLIC "-//W3C//DTD SVG 1.1//EN" "http://www.w3.org/Graphics/SVG/1.1/DTD/svg11.dtd">
<svg version="1.1" id="Capa_1" xmlns="http://www.w3.org/2000/svg" xmlns:xlink="http://www.w3.org/1999/xlink" x="0px" y="0px"
	 width="24px" height="24px" viewBox="0 0 24 24" style="enable-background:new 0 0 24 24;" xml:space="preserve">
<g>
	<g>
		<path d="M20,0H4C1.794,0,0,1.794,0,4v16c0,2.206,1.794,4,4,4h16c2.206,0,4-1.794,4-4V4C24,1.794,22.206,0,20,0z M22,20
			c0,1.104-0.896,2-2,2H4c-1.103,0-2-0.896-2-2V4c0-1.103,0.897-2,2-2h16c1.104,0,2,0.897,2,2V20z"/>
		<path d="M12.871,5.567c-0.273-0.478-0.719-0.478-0.992,0L4.871,17.831c-0.273,0.478-0.046,0.868,0.504,0.868h14
			c0.55,0,0.777-0.391,0.504-0.868L12.871,5.567z M13.329,9l-0.265,5.434h-1.366L11.421,9H13.329z M12.381,17.215
			c-0.647,0-1.079-0.468-1.079-1.091c0-0.636,0.444-1.091,1.079-1.091c0.637,0,1.057,0.456,1.067,1.091
			C13.448,16.748,13.029,17.215,12.381,17.215z"/>
	</g>
</g>
<g>
</g>
<g>
</g>
<g>
</g>
<g>
</g>
<g>
</g>
<g>
</g>
<g>
</g>
<g>
</g>
<g>
</g>
<g>
</g>
<g>
</g>
<g>
</g>
<g>
</g>
<g>
</g>
<g>
</g>
</svg>
