<?xml version="1.0" encoding="iso-8859-1"?>
<!-- Generator: Adobe Illustrator 19.0.0, SVG Export Plug-In . SVG Version: 6.00 Build 0)  -->
<svg version="1.1" id="Capa_1" xmlns="http://www.w3.org/2000/svg" xmlns:xlink="http://www.w3.org/1999/xlink" x="0px" y="0px"
	 viewBox="0 0 399 399" style="enable-background:new 0 0 399 399;" xml:space="preserve">
<g>
	<g>
		<path d="M389,5.5H10c-5.5,0-10,4.5-10,10v368c0,5.5,4.5,10,10,10h379c5.5,0,10-4.5,10-10v-368C399,10,394.5,5.5,389,5.5z
			 M155,96.5v-71h142v71c0,0.4,0.2,0.7,0.4,1H154.8C154.9,97.2,155,96.8,155,96.5z M154.8,209.5h142.6c-0.2,0.3-0.3,0.6-0.4,0.9
			v71.1H155v-71.1C155,210.1,154.9,209.8,154.8,209.5z M216,189.5H74v-72h142V189.5z M20,25.5h115v71c0,0.3-0.2,1-0.1,1H20V25.5z
			 M20,117.5h34v72H20V117.5z M20,209.5h114.9c0,0,0.1,0.6,0.1,0.9v71.1H20V209.5z M54,373.5H20v-72h34V373.5z M216,373.5H74v-72
			h142V373.5z M378,373.5H236v-72h142V373.5z M378,281.5h-61v-71.1c0.1-0.3,0.2-0.6,0.3-0.9H378V281.5z M378,189.5H236v-72h142
			V189.5z M378,97.5h-60.7c-0.1-0.3-0.2-0.7-0.3-1v-71h61V97.5z"/>
	</g>
</g>
<g>
</g>
<g>
</g>
<g>
</g>
<g>
</g>
<g>
</g>
<g>
</g>
<g>
</g>
<g>
</g>
<g>
</g>
<g>
</g>
<g>
</g>
<g>
</g>
<g>
</g>
<g>
</g>
<g>
</g>
</svg>
